# Blender v2.80 (sub 75) OBJ File: ''
# www.blender.org
v 0.909997 1.059290 -0.749574
v 0.909997 -0.940710 -0.749574
v 0.909997 1.059290 1.250426
v 0.909997 -0.940710 1.250426
v -1.090003 1.059290 -0.749574
v -1.090003 -0.940710 -0.749574
v -1.090003 1.059290 1.250426
v -1.090003 -0.940710 1.250426
vt 0.625000 0.000000
vt 0.375000 0.250000
vt 0.375000 0.000000
vt 0.625000 0.250000
vt 0.375000 0.500000
vt 0.375000 0.250000
vt 0.625000 0.500000
vt 0.375000 0.750000
vt 0.625000 0.750000
vt 0.375000 1.000000
vt 0.375000 0.500000
vt 0.125000 0.750000
vt 0.125000 0.500000
vt 0.875000 0.500000
vt 0.625000 0.500000
vt 0.625000 0.250000
vt 0.625000 0.750000
vt 0.625000 1.000000
vt 0.375000 0.750000
vt 0.875000 0.750000
vn 0.0000 1.0000 0.0000
vn 0.0000 0.0000 1.0000
vn -1.0000 0.0000 0.0000
vn 0.0000 -1.0000 0.0000
vn 1.0000 0.0000 0.0000
vn 0.0000 0.0000 -1.0000
s off
f 5/1/1 3/2/1 1/3/1
f 3/4/2 8/5/2 4/6/2
f 7/7/3 6/8/3 8/5/3
f 2/9/4 8/10/4 6/8/4
f 1/11/5 4/12/5 2/13/5
f 5/14/6 2/9/6 6/15/6
f 5/1/1 7/16/1 3/2/1
f 3/4/2 7/7/2 8/5/2
f 7/7/3 5/17/3 6/8/3
f 2/9/4 4/18/4 8/10/4
f 1/11/5 3/19/5 4/12/5
f 5/14/6 1/20/6 2/9/6
v -2.919023 0.059290 -2.117901
v -3.114113 0.059290 -2.098687
v -3.301706 0.059290 -2.041781
v -3.474593 0.059290 -1.949371
v -3.626129 0.059290 -1.825008
v -3.750492 0.059290 -1.673471
v -3.842902 0.059290 -1.500585
v -3.899808 0.059290 -1.312992
v -3.919023 0.059290 -1.117901
v -3.899808 0.059290 -0.922811
v -3.842902 0.059290 -0.735218
v -3.750492 0.059290 -0.562331
v -3.626129 0.059290 -0.410795
v -3.474593 0.059290 -0.286432
v -3.301706 0.059290 -0.194022
v -3.114113 0.059290 -0.137116
v -2.919022 0.059290 -0.117901
v -2.723932 0.059290 -0.137116
v -2.536339 0.059290 -0.194022
v -2.363452 0.059290 -0.286432
v -2.211915 0.059290 -0.410795
v -2.087553 0.059290 -0.562332
v -1.995143 0.059290 -0.735219
v -1.938237 0.059290 -0.922812
v -1.919023 0.059290 -1.117902
v -1.938237 0.059290 -1.312993
v -1.995143 0.059290 -1.500586
v -2.087554 0.059290 -1.673473
v -2.211917 0.059290 -1.825009
v -2.363453 0.059290 -1.949372
v -2.536340 0.059290 -2.041781
v -2.723934 0.059290 -2.098687
v -0.095302 0.609347 -0.727824
v 0.099788 0.609347 -0.708609
v 0.287381 0.609347 -0.651704
v 0.460268 0.609347 -0.559294
v 0.611804 0.609347 -0.434931
v 0.736167 0.609347 -0.283394
v 0.828577 0.609347 -0.110508
v 0.885483 0.609347 0.077086
v 0.904698 0.609347 0.272176
v 0.885483 0.609347 0.467266
v 0.828577 0.609347 0.654859
v 0.736167 0.609347 0.827746
v 0.611804 0.609347 0.979283
v 0.460268 0.609347 1.103646
v 0.287381 0.609347 1.196056
v 0.099788 0.609347 1.252961
v -0.095303 0.609347 1.272176
v -0.290393 0.609347 1.252961
v -0.477986 0.609347 1.196055
v -0.650873 0.609347 1.103645
v -0.802410 0.609347 0.979282
v -0.926772 0.609347 0.827746
v -1.019182 0.609347 0.654859
v -0.095302 2.609347 0.272176
v -1.076088 0.609347 0.467265
v -1.095302 0.609347 0.272175
v -1.076088 0.609347 0.077085
v -1.019182 0.609347 -0.110509
v -0.926771 0.609347 -0.283395
v -0.802408 0.609347 -0.434932
v -0.650872 0.609347 -0.559294
v -0.477985 0.609347 -0.651704
v -0.290391 0.609347 -0.708610
vt 0.250000 0.490000
vt 0.250000 0.250000
vt 0.296822 0.485388
vt 0.341844 0.471731
vt 0.383337 0.449553
vt 0.419706 0.419706
vt 0.449553 0.383337
vt 0.471731 0.341844
vt 0.485388 0.296822
vt 0.490000 0.250000
vt 0.485388 0.203178
vt 0.471731 0.158156
vt 0.449553 0.116663
vt 0.419706 0.080294
vt 0.383337 0.050447
vt 0.341844 0.028269
vt 0.296822 0.014612
vt 0.250000 0.010000
vt 0.203178 0.014612
vt 0.158156 0.028269
vt 0.116663 0.050447
vt 0.080294 0.080294
vt 0.050447 0.116663
vt 0.028269 0.158156
vt 0.014611 0.203179
vt 0.010000 0.250000
vt 0.014612 0.296822
vt 0.028269 0.341844
vt 0.050447 0.383337
vt 0.080295 0.419706
vt 0.116663 0.449553
vt 0.158156 0.471731
vt 0.203179 0.485389
vt 0.985388 0.296822
vt 0.796822 0.014612
vt 0.514611 0.203179
vt 0.703179 0.485389
vt 0.750000 0.490000
vt 0.796822 0.485388
vt 0.841844 0.471731
vt 0.883337 0.449553
vt 0.919706 0.419706
vt 0.949553 0.383337
vt 0.971731 0.341844
vt 0.990000 0.250000
vt 0.985388 0.203178
vt 0.971731 0.158156
vt 0.949553 0.116663
vt 0.919706 0.080294
vt 0.883337 0.050447
vt 0.841844 0.028269
vt 0.750000 0.010000
vt 0.703178 0.014612
vt 0.658156 0.028269
vt 0.616663 0.050447
vt 0.580294 0.080294
vt 0.550447 0.116663
vt 0.528269 0.158156
vt 0.510000 0.250000
vt 0.514612 0.296822
vt 0.528269 0.341844
vt 0.550447 0.383337
vt 0.580295 0.419706
vt 0.616663 0.449553
vt 0.658156 0.471731
vn 0.0878 0.4455 -0.8910
vn 0.2599 0.4455 -0.8567
vn 0.4220 0.4455 -0.7896
vn 0.5680 0.4455 -0.6921
vn 0.6921 0.4455 -0.5680
vn 0.7896 0.4455 -0.4220
vn 0.8567 0.4455 -0.2599
vn 0.8910 0.4455 -0.0878
vn 0.8910 0.4455 0.0878
vn 0.8567 0.4455 0.2599
vn 0.7896 0.4455 0.4220
vn 0.6921 0.4455 0.5680
vn 0.5680 0.4455 0.6921
vn 0.4220 0.4455 0.7896
vn 0.2599 0.4455 0.8567
vn 0.0878 0.4455 0.8910
vn -0.0878 0.4455 0.8910
vn -0.2599 0.4455 0.8567
vn -0.4220 0.4455 0.7896
vn -0.5680 0.4455 0.6921
vn -0.6921 0.4455 0.5680
vn -0.7896 0.4455 0.4220
vn -0.8567 0.4455 0.2599
vn -0.8910 0.4455 0.0878
vn -0.8910 0.4455 -0.0878
vn -0.8567 0.4455 -0.2599
vn -0.7896 0.4455 -0.4220
vn -0.6921 0.4455 -0.5680
vn -0.5680 0.4455 -0.6921
vn -0.4220 0.4455 -0.7896
vn -0.2599 0.4455 -0.8567
vn -0.0878 0.4455 -0.8910
vn 0.0000 -1.0000 0.0000
s off
f 41/21/7 64/22/7 42/23/7
f 42/23/8 64/22/8 43/24/8
f 43/24/9 64/22/9 44/25/9
f 44/25/10 64/22/10 45/26/10
f 45/26/11 64/22/11 46/27/11
f 46/27/12 64/22/12 47/28/12
f 47/28/13 64/22/13 48/29/13
f 48/29/14 64/22/14 49/30/14
f 49/30/15 64/22/15 50/31/15
f 50/31/16 64/22/16 51/32/16
f 51/32/17 64/22/17 52/33/17
f 52/33/18 64/22/18 53/34/18
f 53/34/19 64/22/19 54/35/19
f 54/35/20 64/22/20 55/36/20
f 55/36/21 64/22/21 56/37/21
f 56/37/22 64/22/22 57/38/22
f 57/38/23 64/22/23 58/39/23
f 58/39/24 64/22/24 59/40/24
f 59/40/25 64/22/25 60/41/25
f 60/41/26 64/22/26 61/42/26
f 61/42/27 64/22/27 62/43/27
f 62/43/28 64/22/28 63/44/28
f 63/44/29 64/22/29 65/45/29
f 65/45/30 64/22/30 66/46/30
f 66/46/31 64/22/31 67/47/31
f 67/47/32 64/22/32 68/48/32
f 68/48/33 64/22/33 69/49/33
f 69/49/34 64/22/34 70/50/34
f 70/50/35 64/22/35 71/51/35
f 71/51/36 64/22/36 72/52/36
f 72/52/37 64/22/37 73/53/37
f 73/53/38 64/22/38 41/21/38
f 48/54/39 56/55/39 65/56/39
f 73/57/39 41/58/39 42/59/39
f 42/59/39 43/60/39 44/61/39
f 44/61/39 45/62/39 46/63/39
f 46/63/39 47/64/39 44/61/39
f 47/64/39 48/54/39 44/61/39
f 48/54/39 49/65/39 50/66/39
f 50/66/39 51/67/39 48/54/39
f 51/67/39 52/68/39 48/54/39
f 52/68/39 53/69/39 56/55/39
f 53/69/39 54/70/39 56/55/39
f 54/70/39 55/71/39 56/55/39
f 56/55/39 57/72/39 58/73/39
f 58/73/39 59/74/39 60/75/39
f 60/75/39 61/76/39 65/56/39
f 61/76/39 62/77/39 65/56/39
f 62/77/39 63/78/39 65/56/39
f 65/56/39 66/79/39 67/80/39
f 67/80/39 68/81/39 69/82/39
f 69/82/39 70/83/39 71/84/39
f 71/84/39 72/85/39 73/57/39
f 73/57/39 42/59/39 44/61/39
f 56/55/39 58/73/39 65/56/39
f 58/73/39 60/75/39 65/56/39
f 65/56/39 67/80/39 73/57/39
f 67/80/39 69/82/39 73/57/39
f 69/82/39 71/84/39 73/57/39
f 73/57/39 44/61/39 48/54/39
f 48/54/39 52/68/39 56/55/39
f 73/57/39 48/54/39 65/56/39
