ply
format ascii 1.0
comment Created by Blender 2.80 (sub 75) - www.blender.org, source file: 'boat_Base.blend'
element vertex 36
property float x
property float y
property float z
property float nx
property float ny
property float nz
property float s
property float t
element face 12
property list uchar uint vertex_indices
end_header
-1.192280 -1.086509 -0.956683 -0.927883 0.317890 -0.194882 0.375000 0.000000
-1.969251 -2.209960 0.910116 -0.927883 0.317890 -0.194882 0.625000 0.000000
-0.967488 0.882360 1.184629 -0.927883 0.317890 -0.194882 0.625000 0.250000
-1.192280 -1.086509 -0.956683 -0.851708 0.427236 -0.303419 0.375000 0.000000
-0.967488 0.882360 1.184629 -0.851708 0.427236 -0.303419 0.625000 0.250000
-0.412761 0.524125 -0.876929 -0.851708 0.427236 -0.303419 0.375000 0.250000
-0.412761 0.524125 -0.876929 -0.483664 0.831075 -0.274560 0.375000 0.250000
-0.967488 0.882360 1.184629 -0.483664 0.831075 -0.274560 0.625000 0.250000
3.119405 3.304872 1.317952 -0.483664 0.831075 -0.274560 0.625000 0.500000
-0.412761 0.524125 -0.876929 -0.314231 0.801156 -0.509321 0.375000 0.250000
3.119405 3.304872 1.317952 -0.314231 0.801156 -0.509321 0.625000 0.500000
1.000000 1.000000 -1.000000 -0.314231 0.801156 -0.509321 0.375000 0.500000
1.000000 1.000000 -1.000000 0.839069 -0.384684 -0.384684 0.375000 0.500000
3.119405 3.304872 1.317952 0.839069 -0.384684 -0.384684 0.625000 0.500000
1.000000 -1.000000 1.000000 0.839069 -0.384684 -0.384684 0.625000 0.750000
1.000000 1.000000 -1.000000 0.835558 -0.388486 -0.388486 0.375000 0.500000
1.000000 -1.000000 1.000000 0.835558 -0.388486 -0.388486 0.625000 0.750000
0.297758 -0.554774 -0.955613 0.835558 -0.388486 -0.388486 0.375000 0.750000
0.297758 -0.554774 -0.955613 0.364854 -0.870891 -0.329288 0.375000 0.750000
1.000000 -1.000000 1.000000 0.364854 -0.870891 -0.329288 0.625000 0.750000
-1.969251 -2.209960 0.910116 0.364854 -0.870891 -0.329288 0.625000 1.000000
0.297758 -0.554774 -0.955613 0.309380 -0.866159 -0.392495 0.375000 0.750000
-1.969251 -2.209960 0.910116 0.309380 -0.866159 -0.392495 0.625000 1.000000
-1.192280 -1.086509 -0.956683 0.309380 -0.866159 -0.392495 0.375000 1.000000
-0.412761 0.524125 -0.876929 -0.091017 0.012681 -0.995769 0.125000 0.500000
1.000000 1.000000 -1.000000 -0.091017 0.012681 -0.995769 0.375000 0.500000
0.297758 -0.554774 -0.955613 -0.091017 0.012681 -0.995769 0.375000 0.750000
-0.412761 0.524125 -0.876929 -0.020451 0.059318 -0.998030 0.125000 0.500000
0.297758 -0.554774 -0.955613 -0.020451 0.059318 -0.998030 0.375000 0.750000
-1.192280 -1.086509 -0.956683 -0.020451 0.059318 -0.998030 0.125000 0.750000
3.119405 3.304872 1.317952 0.024628 -0.096311 0.995046 0.625000 0.500000
-0.967488 0.882360 1.184629 0.024628 -0.096311 0.995046 0.875000 0.500000
-1.969251 -2.209960 0.910116 0.024628 -0.096311 0.995046 0.875000 0.750000
3.119405 3.304872 1.317952 -0.000218 -0.073551 0.997291 0.625000 0.500000
-1.969251 -2.209960 0.910116 -0.000218 -0.073551 0.997291 0.875000 0.750000
1.000000 -1.000000 1.000000 -0.000218 -0.073551 0.997291 0.625000 0.750000
3 0 1 2
3 3 4 5
3 6 7 8
3 9 10 11
3 12 13 14
3 15 16 17
3 18 19 20
3 21 22 23
3 24 25 26
3 27 28 29
3 30 31 32
3 33 34 35
